<?xml version="1.0" encoding="UTF-8"?>
<svg xmlns="http://www.w3.org/2000/svg" xmlns:xlink="http://www.w3.org/1999/xlink" width="128px" height="128px" viewBox="0 0 128 128" version="1.1">
<g id="surface1">
<path style=" stroke:none;fill-rule:nonzero;fill:rgb(0%,0%,0%);fill-opacity:1;" d="M 12.382812 24.597656 L 10.503906 24.722656 L 9.835938 35.019531 C 9.476562 40.679688 9.167969 45.574219 9.167969 45.828125 C 9.183594 46.253906 9.792969 46.382812 11.757812 46.382812 L 14.332031 46.382812 L 14.332031 85.53125 L 9.183594 85.53125 L 9.183594 107.660156 L 17.503906 107.660156 C 22.066406 107.660156 26.03125 107.53125 26.296875 107.402344 L 26.78125 107.148438 L 26.78125 85.53125 L 21.703125 85.53125 L 21.703125 46.382812 L 24.238281 46.296875 L 26.769531 46.171875 L 26.78125 35.445312 L 26.78125 24.679688 L 20.523438 24.597656 C 17.085938 24.511719 13.414062 24.511719 12.382812 24.597656 Z M 12.382812 24.597656 "/>
<path style=" stroke:none;fill-rule:nonzero;fill:rgb(0%,0%,0%);fill-opacity:1;" d="M 76.871094 24.636719 C 75.660156 25.617188 74.78125 27.871094 74.269531 31.277344 C 73.976562 33.277344 73.949219 33.957031 73.949219 41.488281 C 73.949219 49.488281 73.949219 49.617188 74.335938 52 C 75.0625 56.46875 76.242188 58.425781 78.21875 58.382812 C 79.125 58.339844 79.472656 58.171875 80.082031 57.234375 C 80.972656 55.914062 81.710938 53.402344 82.003906 50.722656 C 82.324219 47.871094 82.324219 35.019531 81.988281 32.085938 C 81.460938 27.277344 80.207031 24.636719 78.34375 24.425781 C 77.761719 24.339844 77.105469 24.425781 76.871094 24.636719 Z M 79.792969 28.851562 C 80.097656 29.488281 80.5 30.894531 80.695312 31.914062 C 81.03125 33.746094 81.042969 34.128906 81.042969 41.277344 C 81.042969 48.253906 81.015625 48.851562 80.710938 50.765625 C 79.847656 56.171875 77.246094 57.277344 75.921875 52.808594 C 75.242188 50.511719 75.128906 48.894531 75.128906 41.234375 C 75.128906 31.445312 75.421875 29.660156 77.355469 27.488281 C 77.46875 27.363281 77.941406 27.363281 78.398438 27.445312 C 79.011719 27.617188 79.386719 27.957031 79.792969 28.851562 Z M 79.792969 28.851562 "/>
<path style=" stroke:none;fill-rule:nonzero;fill:rgb(0%,0%,0%);fill-opacity:1;" d="M 106.503906 24.511719 C 105.292969 25.445312 104.527344 27.0625 104.125 29.402344 C 103.859375 31.0625 103.890625 34.765625 104.195312 36.808594 C 104.5 38.9375 105.195312 40.128906 107.410156 42.339844 C 108.703125 43.660156 109.105469 44.253906 109.539062 45.53125 C 109.984375 46.9375 110.050781 47.402344 110.050781 49.105469 C 110.050781 51.957031 109.746094 53.53125 108.96875 54.597656 C 108.257812 55.53125 106.808594 55.746094 106.144531 54.980469 C 105.53125 54.253906 104.917969 52.339844 104.75 50.597656 C 104.597656 49.019531 104.542969 48.9375 104.042969 48.9375 C 103.457031 48.9375 103.429688 49.105469 103.667969 51.617188 C 103.859375 53.871094 104.625 56.296875 105.476562 57.445312 C 106.378906 58.597656 108.382812 58.722656 109.355469 57.660156 C 110.832031 56.042969 111.539062 51.703125 111.164062 46.597656 C 110.902344 42.980469 110.359375 41.789062 107.714844 39.148438 C 106.851562 38.253906 105.933594 37.019531 105.667969 36.425781 C 105.210938 35.363281 105.183594 35.105469 105.183594 32.851562 C 105.195312 29.277344 105.683594 27.828125 107.074219 27.402344 C 108.578125 26.9375 109.605469 28.46875 109.96875 31.703125 C 110.148438 33.277344 110.207031 33.402344 110.734375 33.53125 C 111.359375 33.660156 111.359375 33.789062 111.066406 30.425781 C 110.789062 27.148438 109.441406 24.679688 107.839844 24.425781 C 107.253906 24.382812 106.65625 24.382812 106.503906 24.511719 Z M 106.503906 24.511719 "/>
<path style=" stroke:none;fill-rule:nonzero;fill:rgb(0%,0%,0%);fill-opacity:1;" d="M 47.152344 25.828125 C 47.066406 26.46875 46.59375 30.851562 46.09375 35.53125 C 45.59375 40.210938 44.855469 47.105469 44.453125 50.851562 C 44.046875 54.597656 43.742188 57.746094 43.757812 57.871094 C 43.785156 58 44.046875 58.042969 44.355469 57.957031 L 44.910156 57.789062 L 45.355469 53.488281 C 45.59375 51.105469 45.84375 48.851562 45.898438 48.511719 C 45.996094 48 46.386719 47.871094 48.082031 47.871094 L 50.144531 47.871094 L 50.714844 52.980469 L 51.269531 58.085938 L 51.824219 57.957031 C 52.132812 57.871094 52.410156 57.746094 52.4375 57.660156 C 52.492188 57.488281 51.671875 49.914062 51.492188 48.9375 C 51.421875 48.554688 51.324219 47.617188 51.269531 46.808594 C 51.214844 46 51.117188 45.0625 51.046875 44.679688 C 50.949219 44.042969 50.617188 41.0625 50.363281 38.511719 C 50.296875 37.789062 49.933594 34.46875 49.558594 31.0625 L 48.863281 24.894531 L 48.082031 24.765625 C 47.347656 24.636719 47.289062 24.679688 47.152344 25.828125 Z M 48.890625 35.957031 C 49.320312 40.042969 49.710938 43.660156 49.753906 44.042969 C 49.824219 44.597656 49.601562 44.679688 48.070312 44.679688 C 46.441406 44.679688 46.300781 44.636719 46.371094 43.914062 C 46.414062 43.53125 46.679688 40.980469 46.957031 38.296875 C 47.234375 35.617188 47.570312 32.296875 47.695312 30.9375 C 47.820312 29.617188 47.957031 28.511719 48.015625 28.511719 C 48.070312 28.511719 48.460938 31.871094 48.890625 35.957031 Z M 48.890625 35.957031 "/>
<path style=" stroke:none;fill-rule:nonzero;fill:rgb(0%,0%,0%);fill-opacity:1;" d="M 54.398438 37.445312 C 54.414062 51.746094 54.484375 52.980469 55.347656 55.617188 C 56.015625 57.703125 56.640625 58.382812 57.824219 58.382812 C 58.894531 58.382812 59.769531 57.488281 60.605469 55.53125 L 61.0625 54.46875 L 61.105469 56.042969 C 61.148438 57.574219 61.175781 57.660156 61.675781 57.789062 L 62.191406 57.914062 L 62.191406 24.679688 L 61.078125 24.679688 L 61.078125 37.320312 C 61.078125 49.660156 61.0625 50 60.773438 51.320312 C 60.089844 54.339844 58.476562 56.253906 57.378906 55.363281 C 57.058594 55.105469 56.625 54.46875 56.417969 53.957031 C 55.652344 52.128906 55.597656 51.148438 55.539062 37.320312 L 55.484375 24.679688 L 54.386719 24.679688 Z M 54.398438 37.445312 "/>
<path style=" stroke:none;fill-rule:nonzero;fill:rgb(0%,0%,0%);fill-opacity:1;" d="M 64.613281 25.277344 C 64.570312 25.617188 64.554688 26.296875 64.585938 26.808594 C 64.625 27.703125 64.695312 27.746094 66.199219 27.789062 L 67.769531 27.871094 L 67.796875 42.9375 L 67.824219 58 L 68.410156 58.042969 L 69.007812 58.085938 L 69.035156 42.980469 L 69.078125 27.871094 L 70.652344 27.746094 L 72.207031 27.617188 L 72.207031 24.679688 L 68.453125 24.679688 C 65.320312 24.679688 64.667969 24.765625 64.613281 25.277344 Z M 64.613281 25.277344 "/>
<path style=" stroke:none;fill-rule:nonzero;fill:rgb(0%,0%,0%);fill-opacity:1;" d="M 85.316406 41.277344 L 85.355469 57.957031 L 87.152344 57.914062 C 89.390625 57.828125 90.015625 57.402344 90.992188 55.402344 C 91.617188 54.128906 91.839844 53.277344 92.230469 50.9375 C 92.660156 48.253906 92.703125 47.660156 92.757812 42.851562 C 92.839844 36.597656 92.675781 33.363281 92.089844 30.425781 C 91.242188 26.171875 90.324219 25.0625 87.402344 24.765625 L 85.285156 24.597656 Z M 90.253906 29.445312 C 91.214844 31.363281 91.464844 33.617188 91.519531 40.425781 C 91.574219 47.402344 91.339844 50.085938 90.421875 52.511719 C 89.710938 54.339844 88.960938 54.980469 87.609375 54.808594 L 86.523438 54.679688 L 86.496094 41.363281 L 86.46875 28 L 88.082031 28.171875 C 89.558594 28.296875 89.738281 28.382812 90.253906 29.445312 Z M 90.253906 29.445312 "/>
<path style=" stroke:none;fill-rule:nonzero;fill:rgb(0%,0%,0%);fill-opacity:1;" d="M 95.679688 24.980469 C 95.597656 25.488281 95.636719 57.363281 95.722656 57.617188 C 95.761719 57.746094 97.085938 57.871094 98.644531 57.871094 L 101.496094 57.957031 L 101.539062 56.425781 L 101.578125 54.894531 L 96.835938 54.894531 L 96.835938 42.597656 L 99.03125 42.46875 L 101.21875 42.339844 L 101.21875 39.363281 L 99.0625 39.277344 L 96.90625 39.234375 L 96.90625 27.871094 L 99.242188 27.746094 L 101.566406 27.660156 L 101.566406 24.679688 L 98.65625 24.679688 C 97.042969 24.679688 95.707031 24.808594 95.679688 24.980469 Z M 95.679688 24.980469 "/>
<path style=" stroke:none;fill-rule:nonzero;fill:rgb(0%,0%,0%);fill-opacity:1;" d="M 114.015625 25.191406 C 113.976562 25.488281 113.960938 33.019531 113.976562 41.871094 L 114.015625 58 L 115.128906 58 L 115.269531 47.445312 L 115.894531 44.980469 C 116.242188 43.660156 116.5625 42.554688 116.617188 42.554688 C 116.675781 42.554688 117.425781 45.746094 118.289062 49.660156 C 119.191406 53.746094 120.042969 57.0625 120.277344 57.53125 C 120.542969 58.042969 120.890625 58.253906 121.253906 58.210938 C 121.765625 58.085938 121.808594 58 121.851562 56.679688 C 121.890625 55.402344 121.863281 55.320312 121.476562 55.320312 C 121.183594 55.320312 120.945312 54.980469 120.75 54.253906 C 120.332031 52.851562 117.425781 39.957031 117.425781 39.574219 C 117.425781 39.402344 118.234375 36.128906 119.234375 32.296875 C 120.222656 28.46875 121.03125 25.191406 121.042969 24.980469 C 121.042969 24.808594 120.777344 24.679688 120.460938 24.679688 L 119.859375 24.679688 L 117.59375 33.402344 C 116.355469 38.210938 115.285156 42.128906 115.226562 42.128906 C 115.171875 42.128906 115.128906 38.253906 115.128906 33.53125 L 115.128906 24.894531 L 114.601562 24.765625 C 114.269531 24.679688 114.058594 24.808594 114.015625 25.191406 Z M 114.015625 25.191406 "/>
<path style=" stroke:none;fill-rule:nonzero;fill:rgb(0%,0%,0%);fill-opacity:1;" d="M 97 76.511719 C 96.082031 77.53125 95.359375 79.277344 94.789062 81.871094 C 94.175781 84.636719 93.914062 87.574219 93.914062 91.703125 C 93.914062 97.0625 94.289062 100.253906 95.359375 103.746094 C 96.179688 106.46875 97.960938 108.425781 99.117188 107.914062 C 99.953125 107.53125 101.300781 105.445312 101.886719 103.660156 C 103.304688 99.320312 103.75 91.445312 102.941406 84.851562 C 102.566406 81.828125 101.539062 78.339844 100.617188 77.019531 C 99.6875 75.660156 97.988281 75.445312 97 76.511719 Z M 99.589844 81.488281 C 100.714844 82.9375 101.300781 85.871094 101.398438 90.46875 C 101.550781 97.914062 100.4375 102.554688 98.503906 102.554688 C 96.90625 102.511719 95.722656 97.789062 95.722656 91.445312 C 95.722656 84.042969 97.65625 79.0625 99.589844 81.488281 Z M 99.589844 81.488281 "/>
<path style=" stroke:none;fill-rule:nonzero;fill:rgb(0%,0%,0%);fill-opacity:1;" d="M 43.9375 76.46875 C 43.910156 76.679688 43.894531 83.617188 43.894531 91.914062 L 43.910156 107.019531 L 44.839844 107.148438 L 45.773438 107.277344 L 45.773438 76.171875 L 44.882812 76.171875 C 44.382812 76.171875 43.964844 76.296875 43.9375 76.46875 Z M 43.9375 76.46875 "/>
<path style=" stroke:none;fill-rule:nonzero;fill:rgb(0%,0%,0%);fill-opacity:1;" d="M 47.582031 91.703125 L 47.582031 107.234375 L 49.390625 107.234375 L 49.390625 86.597656 L 49.851562 88.722656 C 50.085938 89.914062 51.074219 94.554688 52.019531 99.019531 L 53.746094 107.234375 L 55.511719 107.234375 L 55.511719 76.171875 L 53.703125 76.171875 L 53.675781 86.46875 L 53.636719 96.722656 L 53.007812 93.703125 C 52.660156 92 51.699219 87.363281 50.867188 83.402344 L 49.347656 76.171875 L 47.582031 76.171875 Z M 47.582031 91.703125 "/>
<path style=" stroke:none;fill-rule:nonzero;fill:rgb(0%,0%,0%);fill-opacity:1;" d="M 56.554688 76.894531 C 56.863281 79.320312 60.144531 105.871094 60.203125 106.46875 C 60.257812 107.105469 60.4375 107.234375 61.148438 107.234375 C 61.71875 107.234375 62.050781 107.0625 62.09375 106.679688 C 62.148438 106.210938 64.238281 89.277344 65.347656 80.253906 C 65.601562 78.171875 65.808594 76.425781 65.808594 76.339844 C 65.808594 76.253906 65.363281 76.171875 64.835938 76.171875 C 64.167969 76.171875 63.832031 76.339844 63.792969 76.679688 C 63.761719 76.980469 63.152344 82.210938 62.441406 88.296875 C 61.257812 98.46875 61.148438 99.277344 61.007812 98.128906 C 60.9375 97.445312 60.328125 92.253906 59.671875 86.636719 L 58.492188 76.382812 L 57.476562 76.253906 C 56.542969 76.128906 56.460938 76.210938 56.554688 76.894531 Z M 56.554688 76.894531 "/>
<path style=" stroke:none;fill-rule:nonzero;fill:rgb(0%,0%,0%);fill-opacity:1;" d="M 66.78125 91.277344 C 66.78125 99.574219 66.78125 106.511719 66.78125 106.679688 C 66.78125 106.894531 68.480469 107.0625 70.539062 107.148438 L 74.308594 107.234375 L 74.269531 104.597656 L 74.226562 101.914062 L 71.402344 102.042969 L 68.578125 102.128906 L 68.617188 98.042969 L 68.660156 93.957031 L 71.164062 93.914062 L 73.667969 93.828125 L 73.710938 91.148438 L 73.753906 88.511719 L 68.589844 88.511719 L 68.589844 81.488281 L 71.304688 81.53125 L 74.015625 81.574219 L 74.015625 76.171875 L 66.78125 76.171875 Z M 66.78125 91.277344 "/>
<path style=" stroke:none;fill-rule:nonzero;fill:rgb(0%,0%,0%);fill-opacity:1;" d="M 75.824219 91.703125 L 75.824219 107.234375 L 77.636719 107.234375 L 77.664062 96.980469 L 77.703125 86.679688 L 79.859375 96.980469 L 82.015625 107.234375 L 83.757812 107.234375 L 83.757812 76.171875 L 81.933594 76.171875 L 81.976562 86.382812 C 82.003906 92 81.988281 96.597656 81.949219 96.597656 C 81.90625 96.554688 80.917969 91.957031 79.75 86.382812 L 77.605469 76.171875 L 75.824219 76.171875 Z M 75.824219 91.703125 "/>
<path style=" stroke:none;fill-rule:nonzero;fill:rgb(0%,0%,0%);fill-opacity:1;" d="M 85.105469 78.808594 L 85.121094 81.488281 L 86.609375 81.53125 L 88.082031 81.574219 L 88.082031 94.425781 L 88.070312 107.234375 L 90.015625 107.234375 L 90.046875 94.425781 L 90.085938 81.660156 L 93.007812 81.488281 L 93.050781 78.808594 L 93.09375 76.171875 L 85.078125 76.171875 Z M 85.105469 78.808594 "/>
<path style=" stroke:none;fill-rule:nonzero;fill:rgb(0%,0%,0%);fill-opacity:1;" d="M 105.042969 91.660156 L 105.042969 107.234375 L 106.851562 107.234375 L 106.851562 94.894531 L 108.078125 94.894531 C 109.984375 94.894531 110.207031 95.53125 111.011719 103.0625 L 111.472656 107.234375 L 112.429688 107.234375 C 112.960938 107.234375 113.390625 107.148438 113.390625 107.019531 C 113.390625 106.46875 112.347656 97.488281 112.125 96.128906 C 112 95.320312 111.777344 94.382812 111.667969 94.042969 C 111.457031 93.574219 111.5 93.320312 112.015625 92 C 112.722656 90.128906 112.972656 88.382812 112.972656 85.320312 C 112.972656 81.53125 112.460938 78.679688 111.511719 77.105469 C 111.164062 76.511719 110.554688 76.382812 108.078125 76.253906 L 105.042969 76.085938 Z M 110.832031 82.679688 C 111.039062 83.445312 111.164062 84.425781 111.164062 85.320312 C 111.164062 86.210938 111.039062 87.191406 110.832031 87.957031 C 110.496094 89.148438 110.46875 89.148438 108.675781 89.277344 L 106.851562 89.445312 L 106.851562 81.191406 L 108.675781 81.363281 C 110.46875 81.488281 110.496094 81.488281 110.832031 82.679688 Z M 110.832031 82.679688 "/>
</g>
</svg>
